<svg xmlns="http://www.w3.org/2000/svg" viewBox="0 0 200 200" width="200" height="200">
  <defs>
    <linearGradient id="bg" x1="16%" y1="8%" x2="84%" y2="92%">
      <stop offset="0%" stop-color="#8DDD3B" />
      <stop offset="54%" stop-color="#57D17A" />
      <stop offset="100%" stop-color="#33CBB7" />
    </linearGradient>
    <linearGradient id="gloss" x1="22%" y1="18%" x2="76%" y2="80%">
      <stop offset="0%" stop-color="#FFFFFF" stop-opacity="0.42" />
      <stop offset="100%" stop-color="#FFFFFF" stop-opacity="0" />
    </linearGradient>
    <linearGradient id="ribbonA" x1="8%" y1="42%" x2="92%" y2="60%">
      <stop offset="0%" stop-color="#D4F55E" />
      <stop offset="52%" stop-color="#75DA63" />
      <stop offset="100%" stop-color="#1CBE8F" />
    </linearGradient>
    <linearGradient id="ribbonB" x1="88%" y1="38%" x2="14%" y2="72%">
      <stop offset="0%" stop-color="#D8F457" />
      <stop offset="48%" stop-color="#5FD86E" />
      <stop offset="100%" stop-color="#19C5AF" />
    </linearGradient>
    <filter id="shadow" x="-20%" y="-20%" width="140%" height="140%">
      <feDropShadow dx="0" dy="10" stdDeviation="12" flood-color="#0F766E" flood-opacity="0.22" />
    </filter>
  </defs>

  <rect width="200" height="200" rx="42" fill="url(#bg)" />
  <rect x="8" y="8" width="184" height="184" rx="36" fill="url(#gloss)" opacity="0.55" />

  <g filter="url(#shadow)">
    <path
      d="M32 116
         C44 90, 59 84, 74 96
         C87 107, 93 134, 111 134
         C127 134, 136 112, 145 101
         C156 88, 168 87, 176 104"
      fill="none"
      stroke="url(#ribbonA)"
      stroke-width="18"
      stroke-linecap="round"
      opacity="0.96"
    />
    <path
      d="M32 96
         C43 82, 59 82, 70 96
         C81 110, 91 126, 107 126
         C126 126, 134 90, 152 90
         C163 90, 171 101, 176 113"
      fill="none"
      stroke="#F2FF9D"
      stroke-width="9"
      stroke-linecap="round"
      opacity="0.44"
    />
    <path
      d="M32 90
         C45 111, 58 121, 72 115
         C86 109, 93 82, 112 82
         C129 82, 140 108, 155 114
         C165 118, 172 115, 178 101"
      fill="none"
      stroke="url(#ribbonB)"
      stroke-width="18"
      stroke-linecap="round"
      opacity="0.92"
    />
    <path
      d="M32 90
         C45 111, 58 121, 72 115
         C86 109, 93 82, 112 82
         C129 82, 140 108, 155 114
         C165 118, 172 115, 178 101"
      fill="none"
      stroke="#0FAF8C"
      stroke-width="7"
      stroke-linecap="round"
      opacity="0.25"
    />
  </g>
</svg>
